<svg width="32" height="32" viewBox="0 0 32 32" fill="none" xmlns="http://www.w3.org/2000/svg">
<path fill-rule="evenodd" clip-rule="evenodd" d="M21.5458 15.2001H16.8792V10.5334C16.8792 10.0914 16.5212 9.7334 16.0792 9.7334C15.6372 9.7334 15.2792 10.0914 15.2792 10.5334V15.2001H10.6125C10.1705 15.2001 9.8125 15.5581 9.8125 16.0001C9.8125 16.4421 10.1705 16.8001 10.6125 16.8001H15.2792V21.4667C15.2792 21.9087 15.6372 22.2667 16.0792 22.2667C16.5212 22.2667 16.8792 21.9087 16.8792 21.4667V16.8001H21.5458C21.9878 16.8001 22.3458 16.4421 22.3458 16.0001C22.3458 15.5581 21.9878 15.2001 21.5458 15.2001Z" fill="#7E8194"/>
</svg>
