<svg width="16" height="16" viewBox="0 0 16 16" fill="none" xmlns="http://www.w3.org/2000/svg">
<path fill-rule="evenodd" clip-rule="evenodd" d="M10.6613 13.8001C10.4567 13.8001 10.252 13.7227 10.0953 13.5661L5.09535 8.56607C4.94549 8.41596 4.86133 8.21251 4.86133 8.0004C4.86133 7.78829 4.94549 7.58485 5.09535 7.43474L10.0953 2.43474C10.2454 2.28463 10.4489 2.20026 10.6611 2.2002C10.8733 2.20013 11.0769 2.28438 11.227 2.4344C11.3771 2.58443 11.4615 2.78794 11.4616 3.00017C11.4616 3.2124 11.3774 3.41596 11.2273 3.56607L6.79268 8.00007L11.2273 12.4334C11.3393 12.5454 11.4155 12.688 11.4463 12.8433C11.4772 12.9986 11.4613 13.1595 11.4008 13.3058C11.3402 13.452 11.2376 13.5771 11.106 13.665C10.9744 13.753 10.8197 13.8 10.6613 13.8001Z" fill="#7E8194"/>
</svg>
