<svg width="16" height="16" viewBox="0 0 16 16" fill="none" xmlns="http://www.w3.org/2000/svg">
<path fill-rule="evenodd" clip-rule="evenodd" d="M5.66189 13.8001C5.86656 13.8001 6.07123 13.7227 6.22789 13.5661L11.2279 8.56607C11.3777 8.41596 11.4619 8.21251 11.4619 8.0004C11.4619 7.78829 11.3777 7.58485 11.2279 7.43474L6.22789 2.43474C6.07787 2.28463 5.87436 2.20026 5.66213 2.2002C5.4499 2.20013 5.24634 2.28438 5.09623 2.4344C4.94612 2.58443 4.86175 2.78794 4.86168 3.00017C4.86162 3.2124 4.94587 3.41596 5.09589 3.56607L9.53056 8.00007L5.09589 12.4334C4.98398 12.5454 4.90778 12.688 4.87691 12.8433C4.84604 12.9986 4.8619 13.1595 4.92247 13.3058C4.98305 13.452 5.08562 13.5771 5.21723 13.665C5.34884 13.753 5.50358 13.8 5.66189 13.8001Z" fill="#7E8194"/>
</svg>
