<svg width="16" height="16" viewBox="0 0 16 16" fill="none" xmlns="http://www.w3.org/2000/svg">
<path fill-rule="evenodd" clip-rule="evenodd" d="M9.81546 7.9998L15.4665 2.3488C15.9355 1.8798 15.9355 1.1198 15.4665 0.650805C14.9985 0.182805 14.2385 0.182805 13.7695 0.650805L8.11846 6.3028L2.46646 0.650805C1.99846 0.182805 1.23846 0.182805 0.769457 0.650805C0.301457 1.1198 0.301457 1.8798 0.769457 2.3488L6.42146 7.9998L0.769457 13.6508C0.301457 14.1198 0.301457 14.8798 0.769457 15.3488C1.00346 15.5828 1.31146 15.6998 1.61846 15.6998C1.92546 15.6998 2.23246 15.5828 2.46646 15.3488L8.11846 9.69681L13.7695 15.3488C14.0035 15.5828 14.3115 15.6998 14.6185 15.6998C14.9255 15.6998 15.2325 15.5828 15.4665 15.3488C15.9355 14.8798 15.9355 14.1198 15.4665 13.6508L9.81546 7.9998Z" fill="#E2E3E8"/>
</svg>
