<svg width="24" height="24" viewBox="0 0 24 24" fill="none" xmlns="http://www.w3.org/2000/svg">
<path fill-rule="evenodd" clip-rule="evenodd" d="M13.8155 11.9998L19.4665 6.3488C19.9355 5.8798 19.9355 5.1198 19.4665 4.6508C18.9985 4.1828 18.2385 4.1828 17.7695 4.6508L12.1185 10.3028L6.46646 4.6508C5.99846 4.1828 5.23846 4.1828 4.76946 4.6508C4.30146 5.1198 4.30146 5.8798 4.76946 6.3488L10.4215 11.9998L4.76946 17.6508C4.30146 18.1198 4.30146 18.8798 4.76946 19.3488C5.00346 19.5828 5.31146 19.6998 5.61846 19.6998C5.92546 19.6998 6.23246 19.5828 6.46646 19.3488L12.1185 13.6968L17.7695 19.3488C18.0035 19.5828 18.3115 19.6998 18.6185 19.6998C18.9255 19.6998 19.2325 19.5828 19.4665 19.3488C19.9355 18.8798 19.9355 18.1198 19.4665 17.6508L13.8155 11.9998Z" fill="#7E8194"/>
</svg>
