<svg width="78" height="18" viewBox="0 0 78 18" fill="none" xmlns="http://www.w3.org/2000/svg">
<path d="M73.5456 13.887C71.8416 13.887 70.4916 13.257 69.4956 11.997L70.8456 10.395C71.1936 10.815 71.6076 11.151 72.0876 11.403C72.5796 11.643 73.0716 11.763 73.5636 11.763C73.9476 11.763 74.2656 11.673 74.5176 11.493C74.7816 11.313 74.9136 11.085 74.9136 10.809C74.9136 10.461 74.6796 10.179 74.2116 9.96298C74.0676 9.90298 73.6776 9.75298 73.0416 9.51298C72.4776 9.30898 72.0576 9.13498 71.7816 8.99098C70.6536 8.45098 70.0896 7.60498 70.0896 6.45298C70.0896 5.60098 70.4256 4.89298 71.0976 4.32898C71.7576 3.77698 72.6456 3.50098 73.7616 3.50098C75.1536 3.50098 76.2996 3.96898 77.1996 4.90498L75.9396 6.54298C75.2556 5.89498 74.5056 5.57098 73.6896 5.57098C73.3656 5.57098 73.0956 5.65498 72.8796 5.82298C72.6756 5.97898 72.5736 6.17098 72.5736 6.39898C72.5736 6.80698 72.8616 7.10698 73.4376 7.29898C74.7216 7.77898 75.5076 8.09698 75.7956 8.25298C76.8996 8.82898 77.4516 9.65698 77.4516 10.737C77.4516 11.661 77.0916 12.417 76.3716 13.005C75.6756 13.593 74.7336 13.887 73.5456 13.887Z" fill="white"/>
<path d="M63.7224 3.57324C65.1024 3.57324 66.2544 4.07124 67.1784 5.06724C68.0904 6.05124 68.5464 7.26924 68.5464 8.72124C68.5464 10.1612 68.0844 11.3792 67.1604 12.3752C66.2364 13.3712 65.0844 13.8692 63.7044 13.8692C62.4924 13.8692 61.4664 13.4132 60.6264 12.5012V17.6672H58.0884V3.82524H60.6084V5.03124C61.4484 4.05924 62.4864 3.57324 63.7224 3.57324ZM63.2724 11.5472C64.0764 11.5472 64.7304 11.2772 65.2344 10.7372C65.7384 10.1972 65.9904 9.53124 65.9904 8.73924C65.9904 7.94724 65.7384 7.28124 65.2344 6.74124C64.7304 6.20124 64.0764 5.93124 63.2724 5.93124C62.4804 5.93124 61.8324 6.20124 61.3284 6.74124C60.8244 7.28124 60.5724 7.94724 60.5724 8.73924C60.5724 9.53124 60.8244 10.1972 61.3284 10.7372C61.8324 11.2772 62.4804 11.5472 63.2724 11.5472Z" fill="white"/>
<path d="M45.7886 8.72069C45.7886 7.26869 46.2806 6.05069 47.2646 5.06669C48.2606 4.05869 49.5206 3.55469 51.0446 3.55469C52.5686 3.55469 53.8286 4.05869 54.8246 5.06669C55.8086 6.05069 56.3006 7.26869 56.3006 8.72069C56.3006 10.1847 55.8086 11.4087 54.8246 12.3927C53.8286 13.3887 52.5686 13.8867 51.0446 13.8867C49.5206 13.8867 48.2606 13.3887 47.2646 12.3927C46.2806 11.4087 45.7886 10.1847 45.7886 8.72069ZM49.1006 10.7187C49.6166 11.2587 50.2646 11.5287 51.0446 11.5287C51.8006 11.5287 52.4426 11.2587 52.9706 10.7187C53.4986 10.1547 53.7626 9.48869 53.7626 8.72069C53.7626 7.95269 53.4986 7.29269 52.9706 6.74069C52.4426 6.20069 51.8006 5.93069 51.0446 5.93069C50.2646 5.93069 49.6166 6.20069 49.1006 6.74069C48.5846 7.26869 48.3266 7.92869 48.3266 8.72069C48.3266 9.50069 48.5846 10.1667 49.1006 10.7187Z" fill="white"/>
<path d="M34.0112 8.72069C34.0112 7.26869 34.5032 6.05069 35.4872 5.06669C36.4832 4.05869 37.7432 3.55469 39.2672 3.55469C40.7912 3.55469 42.0512 4.05869 43.0472 5.06669C44.0312 6.05069 44.5232 7.26869 44.5232 8.72069C44.5232 10.1847 44.0312 11.4087 43.0472 12.3927C42.0512 13.3887 40.7912 13.8867 39.2672 13.8867C37.7432 13.8867 36.4832 13.3887 35.4872 12.3927C34.5032 11.4087 34.0112 10.1847 34.0112 8.72069ZM37.3232 10.7187C37.8392 11.2587 38.4872 11.5287 39.2672 11.5287C40.0232 11.5287 40.6652 11.2587 41.1932 10.7187C41.7212 10.1547 41.9852 9.48869 41.9852 8.72069C41.9852 7.95269 41.7212 7.29269 41.1932 6.74069C40.6652 6.20069 40.0232 5.93069 39.2672 5.93069C38.4872 5.93069 37.8392 6.20069 37.3232 6.74069C36.8072 7.26869 36.5492 7.92869 36.5492 8.72069C36.5492 9.50069 36.8072 10.1667 37.3232 10.7187Z" fill="white"/>
<path d="M28.5509 10.1792L30.9629 3.8252H33.7529L29.4869 13.6172H27.5429L23.2949 3.8252H26.0849L28.5509 10.1792Z" fill="white"/>
<path d="M23.0494 8.50524C23.0494 8.80524 23.0194 9.17724 22.9594 9.62124H15.5974C15.9574 11.0132 16.9114 11.7092 18.4594 11.7092C19.5994 11.7092 20.6554 11.3792 21.6274 10.7192L22.6354 12.5012C21.3874 13.4012 19.9594 13.8512 18.3514 13.8512C16.6354 13.8512 15.3154 13.3532 14.3914 12.3572C13.4794 11.3732 13.0234 10.1612 13.0234 8.72124C13.0234 7.22124 13.4974 5.99124 14.4454 5.03124C15.3934 4.05924 16.6234 3.57324 18.1354 3.57324C19.5634 3.57324 20.7394 4.01724 21.6634 4.90524C22.5874 5.79324 23.0494 6.99324 23.0494 8.50524ZM18.1354 5.67924C17.4994 5.67924 16.9534 5.86524 16.4974 6.23724C16.0534 6.59724 15.7534 7.09524 15.5974 7.73124H20.5834C20.4634 7.09524 20.1874 6.59724 19.7554 6.23724C19.3234 5.86524 18.7834 5.67924 18.1354 5.67924Z" fill="white"/>
<path d="M5.094 13.635H0V0.333008H5.202C7.206 0.333008 8.772 0.933008 9.9 2.13301C11.04 3.33301 11.61 4.95901 11.61 7.01101C11.61 9.06301 11.028 10.677 9.864 11.853C8.712 13.041 7.122 13.635 5.094 13.635ZM2.664 2.88901V11.079H5.22C6.36 11.079 7.248 10.689 7.884 9.90901C8.52 9.12901 8.838 8.14501 8.838 6.95701C8.838 5.80501 8.52 4.83901 7.884 4.05901C7.248 3.27901 6.36 2.88901 5.22 2.88901H2.664Z" fill="white"/>
</svg>
