<svg width="16" height="17" viewBox="0 0 16 17" fill="none" xmlns="http://www.w3.org/2000/svg">
<path fill-rule="evenodd" clip-rule="evenodd" d="M9.21022 8.50003L12.9776 4.7327C13.2902 4.42003 13.2902 3.91337 12.9776 3.6007C12.6656 3.2887 12.1589 3.2887 11.8462 3.6007L8.07889 7.3687L4.31089 3.6007C3.99889 3.2887 3.49222 3.2887 3.17956 3.6007C2.86756 3.91337 2.86756 4.42003 3.17956 4.7327L6.94756 8.50003L3.17956 12.2674C2.86756 12.58 2.86756 13.0867 3.17956 13.3994C3.33556 13.5554 3.54089 13.6334 3.74556 13.6334C3.95022 13.6334 4.15489 13.5554 4.31089 13.3994L8.07889 9.63137L11.8462 13.3994C12.0022 13.5554 12.2076 13.6334 12.4122 13.6334C12.6169 13.6334 12.8216 13.5554 12.9776 13.3994C13.2902 13.0867 13.2902 12.58 12.9776 12.2674L9.21022 8.50003Z" fill="#BDBFC8"/>
</svg>
