<svg width="16" height="16" viewBox="0 0 16 16" fill="none" xmlns="http://www.w3.org/2000/svg">
<path fill-rule="evenodd" clip-rule="evenodd" d="M11.4714 6.81033L7.74941 10.533C7.62408 10.6577 7.45475 10.7283 7.27741 10.7283C7.10075 10.7283 6.93141 10.6577 6.80608 10.533L4.52875 8.25566C4.26808 7.99499 4.26808 7.57299 4.52875 7.31299C4.78875 7.05233 5.21141 7.05233 5.47141 7.31299L7.27741 9.11899L10.5287 5.86766C10.7887 5.60699 11.2107 5.60699 11.4714 5.86766C11.7321 6.12833 11.7321 6.55033 11.4714 6.81033ZM8.00008 0.666992C3.95008 0.666992 0.666748 3.95033 0.666748 8.00033C0.666748 12.0503 3.95008 15.3337 8.00008 15.3337C12.0501 15.3337 15.3334 12.0503 15.3334 8.00033C15.3334 3.95033 12.0501 0.666992 8.00008 0.666992Z" fill="#8B9AFC"/>
</svg>
