<svg width="16" height="16" viewBox="0 0 16 16" fill="none" xmlns="http://www.w3.org/2000/svg">
<path d="M8.67188 13.9629L8.72754 14.46C8.48854 14.4866 8.24575 14.5 8 14.5C7.75425 14.5 7.51146 14.4866 7.27246 14.46L7.32812 13.9629L7.38281 13.4658C7.58511 13.4884 7.79133 13.5 8 13.5C8.20867 13.5 8.41489 13.4884 8.61719 13.4658L8.67188 13.9629ZM4.73438 12.4258C5.06361 12.6691 5.42046 12.8772 5.7998 13.043L5.39941 13.959C4.95071 13.7629 4.52844 13.5179 4.13965 13.2305L4.43652 12.8281L4.73438 12.4258ZM11.5635 12.8281L11.8604 13.2305C11.4716 13.5179 11.0493 13.7629 10.6006 13.959L10.2002 13.043C10.5795 12.8772 10.9364 12.6691 11.2656 12.4258L11.5635 12.8281ZM2.95703 10.2002C3.12279 10.5795 3.33085 10.9364 3.57422 11.2656L3.17188 11.5635L2.76953 11.8604C2.48214 11.4716 2.23709 11.0493 2.04102 10.6006L2.95703 10.2002ZM13.959 10.6006C13.7629 11.0493 13.5179 11.4716 13.2305 11.8604L12.8281 11.5635L12.4258 11.2656C12.6691 10.9364 12.8772 10.5795 13.043 10.2002L13.959 10.6006ZM1.5 8C1.5 7.75425 1.5134 7.51146 1.54004 7.27246L2.03711 7.32812L2.53418 7.38281C2.51163 7.58511 2.5 7.79133 2.5 8C2.5 8.20867 2.51163 8.41489 2.53418 8.61719L2.03711 8.67188L1.54004 8.72754C1.5134 8.48854 1.5 8.24575 1.5 8ZM13.5 8C13.5 7.79133 13.4884 7.58511 13.4658 7.38281L13.9629 7.32812L14.46 7.27246C14.4866 7.51146 14.5 7.75425 14.5 8C14.5 8.24575 14.4866 8.48854 14.46 8.72754L13.9629 8.67188L13.4658 8.61719C13.4884 8.41489 13.5 8.20867 13.5 8ZM3.17188 4.43652L3.57422 4.73438C3.33085 5.06361 3.12279 5.42046 2.95703 5.7998L2.04102 5.39941C2.23709 4.95071 2.48214 4.52844 2.76953 4.13965L3.17188 4.43652ZM13.2305 4.13965C13.5179 4.52844 13.7629 4.95071 13.959 5.39941L13.043 5.7998C12.8772 5.42046 12.6691 5.06361 12.4258 4.73438L12.8281 4.43652L13.2305 4.13965ZM5.7998 2.95703C5.42046 3.12279 5.06361 3.33085 4.73438 3.57422L4.43652 3.17188L4.13965 2.76953C4.52844 2.48214 4.95071 2.23709 5.39941 2.04102L5.7998 2.95703ZM10.6006 2.04102C11.0493 2.23709 11.4716 2.48214 11.8604 2.76953L11.5635 3.17188L11.2656 3.57422C10.9364 3.33085 10.5795 3.12279 10.2002 2.95703L10.6006 2.04102ZM8 1.5C8.24575 1.5 8.48854 1.5134 8.72754 1.54004L8.67188 2.03711L8.61719 2.53418C8.41489 2.51163 8.20867 2.5 8 2.5C7.79133 2.5 7.58511 2.51163 7.38281 2.53418L7.32812 2.03711L7.27246 1.54004C7.51146 1.5134 7.75425 1.5 8 1.5Z" fill="#7E8194"/>
</svg>
