<svg width="108" height="107" viewBox="0 0 108 107" fill="none" xmlns="http://www.w3.org/2000/svg">
<rect width="107" height="107" transform="translate(0.5)" fill="#0D0E12"/>
<path d="M23.1069 21.5359C23.4096 21.2334 24.3825 20.6238 27.0353 20.9779C29.6245 21.3235 33.071 22.5176 37.1985 24.6915C45.41 29.0165 55.4128 36.7366 65.1156 46.9001C74.8182 57.0635 82.126 67.4759 86.1589 75.9766C88.1861 80.2496 89.2725 83.8036 89.5493 86.4601C89.8327 89.1815 89.2137 90.1619 88.911 90.4643C88.6081 90.7669 87.6355 91.377 84.9833 91.023C82.3941 90.6774 78.947 89.4826 74.8194 87.3087C66.608 82.9837 56.6063 75.2633 46.9037 65.1001C37.2009 54.9366 29.8919 44.5244 25.859 36.0236C23.832 31.7509 22.7462 28.1973 22.4694 25.5408C22.1858 22.8197 22.8042 21.8386 23.1069 21.5359Z" stroke="url(#paint0_linear_1999_4141)" stroke-width="9"/>
<path d="M91.29 24.1137C91.5765 24.4457 92.12 25.4759 91.6417 28.1656C91.1744 30.7928 89.8368 34.2534 87.508 38.3606C82.8748 46.5318 74.8375 56.363 64.4301 65.7657C54.0229 75.1682 43.4935 82.1111 34.9952 85.8039C30.7235 87.66 27.2009 88.5904 24.595 88.7397C21.9274 88.8924 20.9959 88.2125 20.7094 87.8806C20.4228 87.5484 19.8787 86.5185 20.357 83.8293C20.8242 81.2021 22.1632 77.7416 24.492 73.6344C29.1252 65.4633 37.162 55.6325 47.5692 46.23C57.9767 36.8273 68.5064 29.8839 77.0048 26.1911C81.2763 24.3351 84.7978 23.4046 87.4036 23.2553C90.0711 23.1025 91.0033 23.7817 91.29 24.1137Z" stroke="url(#paint1_linear_1999_4141)" stroke-width="9"/>
<defs>
<linearGradient id="paint0_linear_1999_4141" x1="68.2981" y1="43.7192" x2="43.1721" y2="67.7064" gradientUnits="userSpaceOnUse">
<stop offset="0.2" stop-color="#2E2F36"/>
<stop offset="0.889423" stop-color="#212229"/>
</linearGradient>
<linearGradient id="paint1_linear_1999_4141" x1="67.3701" y1="69.1718" x2="44.0434" y2="43.3525" gradientUnits="userSpaceOnUse">
<stop offset="0.1414" stop-color="#313239"/>
<stop offset="0.860577" stop-color="#202128"/>
</linearGradient>
</defs>
</svg>
